<?xml version="1.0" encoding="utf-8"?>
<!-- Generator: Adobe Illustrator 21.0.0, SVG Export Plug-In . SVG Version: 6.00 Build 0)  -->
<svg version="1.1" id="Layer_1"
  xmlns="http://www.w3.org/2000/svg"
  xmlns:xlink="http://www.w3.org/1999/xlink" x="0px" y="0px" viewBox="0 0 21 21" style="enable-background: new 0 0 21 21;" xml:space="preserve">
  <style type="text/css">
  .st0 {
    fill: #ffd74b;
  }
  </style>
  <path class="st0" d="M10.5 0C6.15169 0 2.625 3.52669 2.625 7.875C2.625 12.9334 6.42846 15.1449 7.26923 16.1538C9.28846 18.5769 9.40257 21 10.5 21C11.5974 21 11.7115 18.5769 13.7308 16.1538C14.5715 15.1449 18.375 12.9334 18.375 7.875C18.375 3.52669 14.8483 0 10.5 0ZM10.5 13.125C7.60069 13.125 5.25 10.7743 5.25 7.875C5.25 4.97569 7.60069 2.625 10.5 2.625C13.3993 2.625 15.75 4.97569 15.75 7.875C15.75 10.7743 13.3993 13.125 10.5 13.125ZM10.5 5.25C9.051 5.25 7.875 6.426 7.875 7.875C7.875 9.324 9.051 10.5 10.5 10.5C11.949 10.5 13.125 9.324 13.125 7.875C13.125 6.426 11.949 5.25 10.5 5.25Z"/>
  <ellipse cx="10.5" cy="7.875" rx="0.875001" ry="0.875"/>
</svg>
